Coordinates
version=1
nRows=16
nColumns=36
inDegrees=yes

Units are S.I. units (second, meters, Newtons, ...)
If the header above contains a line with 'inDegrees', this indicates whether rotational values are in degrees (yes) or radians (no).

endheader
time	pelvis_tilt	pelvis_list	pelvis_rotation	pelvis_tx	pelvis_ty	pelvis_tz	hip_flexion_r	hip_adduction_r	hip_rotation_r	knee_angle_r	knee_angle_r_beta	ankle_angle_r	subtalar_angle_r	mtp_angle_r	hip_flexion_l	hip_adduction_l	hip_rotation_l	knee_angle_l	knee_angle_l_beta	ankle_angle_l	subtalar_angle_l	mtp_angle_l	lumbar_extension	lumbar_bending	lumbar_rotation	arm_flex_r	arm_add_r	arm_rot_r	elbow_flex_r	pro_sup_r	arm_flex_l	arm_add_l	arm_rot_l	elbow_flex_l	pro_sup_l
      1.93333330	     -2.22005260	     16.39825001	      8.83139653	      0.87733401	      0.79941027	      0.01051216	     69.18108677	    -18.44490129	     18.17147122	     35.20286867	      0.61440596	     -6.77808134	      4.44064843	     -7.49999884	     47.99836009	     23.46337172	     -8.38006660	     72.18427274	      1.25985323	     27.39492578	     -8.33179901	     -7.49999884	    -30.87973469	    -14.29165050	     -8.45853787	     66.26478596	      7.93729961	     63.74806105	    113.28291785	     84.79024120	     64.78318633	      0.68861304	     60.33678129	    123.34900435	     84.84132869
      1.95000000	     -2.20063050	     16.60356201	      8.98063343	      0.87722106	      0.79953489	      0.01063301	     69.41504224	    -18.66826580	     18.37070416	     35.32918132	      0.61661054	     -7.13825434	      4.65850868	     -7.49999895	     48.25786747	     23.69219612	     -8.52947308	     72.67394547	      1.26839963	     27.50861083	     -8.51800262	     -7.49999895	    -31.15602496	    -14.33466869	     -8.74442047	     66.35355790	      7.95115559	     63.54464113	    112.64280669	     83.68406699	     64.77855392	      0.66369055	     60.42316962	    123.33273504	     83.80376580
      1.96666670	     -2.19618777	     16.75784717	      8.92598070	      0.88086593	      0.79812098	      0.00826559	     69.49393220	    -18.72121653	     18.48261651	     35.23880262	      0.61503313	     -7.14390582	      4.69948739	     -7.49999895	     48.32422043	     23.83976847	     -8.64241394	     72.92261892	      1.27273980	     27.50674134	     -8.54872670	     -7.49999895	    -31.27107985	    -14.18298680	     -8.86135900	     66.28435747	      7.88679934	     63.51202938	    112.59909151	     83.70985478	     64.77894833	      0.66337351	     60.39500646	    123.28978631	     83.83209052
      1.98333330	     -2.20618333	     16.87556723	      8.95560676	      0.88450839	      0.79943888	      0.01139760	     69.50498790	    -18.80798980	     18.60285824	     35.12968248	      0.61312862	     -7.17184360	      4.77735346	     -7.49999895	     48.29527295	     24.01335015	     -8.61024746	     73.16442794	      1.27696016	     27.54971234	     -8.59373537	     -7.49999895	    -31.35219284	    -14.31214179	     -8.79548369	     66.14145147	      7.92729456	     63.52688938	    112.57200326	     83.74199832	     64.57811415	      0.57181689	     60.40826849	    123.30460161	     83.86738313
      2.00000000	     -2.80100545	     17.31627841	      8.94209448	      0.88464629	      0.79857533	      0.01134534	     70.30599196	    -18.90724867	     19.16537403	     35.16049373	      0.61366638	     -7.12513283	      5.22371387	     -7.49999930	     48.72871838	     24.34406187	     -9.02698457	     73.05178406	      1.27499416	     27.58096900	     -8.82472452	     -7.49999930	    -30.49110475	    -14.83124644	     -9.18438921	     64.99819328	      8.45615099	     62.77749870	    111.57550004	     91.23752795	     62.92539745	     -0.07987117	     58.96651082	    123.52161647	     91.89939234
      2.01666670	     -2.95982062	     17.45694313	      8.83992633	      0.88437233	      0.79658662	      0.01137585	     70.62660658	    -18.79940231	     19.46339968	     35.29568638	      0.61602594	     -7.17508317	      5.12914960	     -7.49999939	     48.88427701	     24.36577998	     -9.23845335	     73.20724081	      1.27770739	     27.65252925	     -8.81821209	     -7.49999939	    -30.10080881	    -15.06757800	     -9.05170028	     64.91130676	      8.44735566	     63.06196601	    111.89497979	     89.06004233	     62.88350997	      0.26777148	     58.74459238	    123.60232442	     89.65431400
      2.03333330	     -3.18928950	     17.58085867	      8.86146767	      0.88397665	      0.79397672	      0.01098164	     71.11647699	    -18.74560469	     19.74396092	     35.54613416	      0.62039708	     -7.13980848	      5.08612790	     -7.49999945	     49.25297074	     24.40284459	     -9.48234302	     73.47045757	      1.28230139	     27.65200130	     -8.89434405	     -7.49999945	    -29.64208600	    -15.26646466	     -9.17742748	     65.05362485	      8.52844554	     62.74425637	    112.21330200	     87.47701552	     63.31282007	      0.52370431	     58.32576972	    123.55772096	     88.05411506
      2.05000000	     -3.34129534	     17.74018876	      8.97513400	      0.88413116	      0.79677761	      0.01138507	     71.40795965	    -18.87330805	     19.82088055	     35.53499017	      0.62020258	     -7.04519271	      5.29723203	     -7.49999950	     49.43264257	     24.58694980	     -9.55831811	     73.56085129	      1.28387906	     27.57994885	     -9.07910233	     -7.49999950	    -29.36281957	    -15.42599380	     -9.24535231	     65.08018122	      8.54822710	     62.53915662	    112.35938211	     86.21369823	     63.56231980	      0.54118999	     58.64783580	    123.68847486	     86.84077085
      2.06666670	     -3.28405010	     17.84183829	      8.92561955	      0.88806391	      0.80004559	      0.00930353	     71.33264303	    -18.92936486	     19.80325057	     35.28271539	      0.61579955	     -7.01579970	      5.44489689	     -7.49999950	     49.20888040	     24.75074651	     -9.49288913	     73.45495015	      1.28203073	     27.57202361	     -9.16111389	     -7.49999950	    -29.13070783	    -15.51139188	     -9.38498127	     64.68782517	      8.54320661	     62.61011395	    112.39049234	     86.31897466	     63.40188608	      0.43627728	     58.85335024	    123.67205225	     86.96380886
      2.08333330	     -3.37285087	     17.88545080	      8.97298393	      0.88426333	      0.80171435	      0.01192900	     71.34841260	    -18.96234359	     19.74664666	     35.11682223	      0.61290417	     -6.99737492	      5.56597234	     -7.49999950	     49.09589908	     24.83889774	     -9.43344887	     73.32765021	      1.27980893	     27.56517776	     -9.21691445	     -7.49999950	    -29.02378263	    -15.51790052	     -9.36381045	     64.70610438	      8.54936984	     62.63208801	    112.38347692	     86.36844832	     63.55329687	      0.23055171	     58.90341792	    123.51753321	     87.02093892
      2.10000000	     -3.35451371	     17.97162215	      8.90028126	      0.88859797	      0.80488008	      0.00974615	     71.14724689	    -19.04351655	     19.57567480	     34.70157779	      0.60565679	     -7.04953096	      5.96881684	     -7.49999950	     48.69313525	     24.99301123	     -9.28781314	     72.93335626	      1.27292720	     27.44819768	     -9.33926558	     -7.49999950	    -28.81481812	    -15.61426108	     -9.53205842	     64.29400908	      8.65368900	     62.99441829	    112.45175086	     86.50519630	     63.27401098	      0.02011948	     59.46981995	    123.23029229	     87.17603898
      2.11666670	     -3.25390091	     18.08446147	      8.77069877	      0.89307505	      0.80717503	      0.00777759	     70.84889290	    -19.14893590	     19.42868151	     34.27238706	      0.59816600	     -7.07112114	      6.31199471	     -7.49999951	     48.11326900	     25.18822393	     -9.15969164	     72.38846197	      1.26341700	     27.20928670	     -9.48826893	     -7.49999951	    -28.40793151	    -15.73389139	     -9.53555839	     63.94906303	      8.55689521	     63.38080071	    112.66327684	     86.67358228	     62.69865739	     -0.08125551	     59.84554389	    122.98584298	     87.33060168
      2.13333330	     -3.09300131	     18.23771683	      8.66893968	      0.89288311	      0.80908390	      0.00743910	     70.49170801	    -19.33689517	     19.29050451	     33.87042823	      0.59115049	     -7.00729555	      6.86593574	     -7.49999955	     47.50687391	     25.46881648	     -9.06934305	     71.80149117	      1.25317243	     26.69261089	    -10.10776341	     -7.49999955	    -28.10118886	    -15.91398409	     -9.51311095	     63.84444229	      8.07242969	     63.82810508	    113.18443134	     85.84471937	     62.18588182	     -0.02674667	     60.10331219	    122.54976640	     86.39665106
      2.15000000	     -3.02163778	     18.38124332	      8.64343686	      0.89318043	      0.80969126	      0.00763698	     70.24976303	    -19.54335323	     19.17170397	     33.50316367	      0.58474052	     -7.11018202	      7.25756628	     -7.49999965	     47.04338936	     25.73021681	     -8.96809247	     71.30865876	      1.24457088	     26.31095960	    -10.46231124	     -7.49999965	    -27.62022040	    -16.00549086	     -9.64856680	     63.79199132	      8.21727808	     63.48944648	    113.24030857	     92.35452113	     62.00455892	      0.21331979	     58.98420687	    122.53262372	     91.67519661
      2.16666670	     -2.85081096	     18.57655603	      8.54382890	      0.89797207	      0.81835511	      0.00571166	     69.66640904	    -19.82702834	     18.98182028	     32.85302277	      0.57339342	     -7.26269836	      7.71809647	     -7.49999965	     46.15200810	     26.11040322	     -8.65540860	     70.45948820	      1.22975006	     26.25238842	    -10.44293230	     -7.49999965	    -27.18056133	    -16.11199047	     -9.65439213	     63.22367819	      8.31019457	     63.74492273	    113.40115743	     92.39897767	     61.44219280	      0.48404180	     59.19129466	    122.84461100	     91.71533473
      2.18333330	     -2.35725416	     18.66863203	      8.25883226	      0.89784819	      0.82436705	      0.00556104	     68.64672810	    -20.02642986	     18.63312915	     32.21461156	      0.56225104	     -7.13203296	      8.52464570	     -7.49999976	     44.82288897	     26.36755131	     -8.23958723	     69.48553732	      1.21275141	     26.05381607	    -10.58044377	     -7.49999976	    -27.33547660	    -15.94410035	     -9.46275457	     62.93503735	      8.16896614	     63.81950248	    113.63965439	     92.72460801	     61.24666213	      0.70179961	     59.24154291	    123.09051245	     92.76334121
